<svg aria-hidden="true" style="position: absolute; width: 0; height: 0; overflow: hidden;" version="1.1" xmlns="http://www.w3.org/2000/svg" xmlns:xlink="http://www.w3.org/1999/xlink">
<defs>
<symbol id="icon-alert-circle" viewBox="0 0 24 24">
<path d="M23 12c0-3.037-1.232-5.789-3.222-7.778s-4.741-3.222-7.778-3.222-5.789 1.232-7.778 3.222-3.222 4.741-3.222 7.778 1.232 5.789 3.222 7.778 4.741 3.222 7.778 3.222 5.789-1.232 7.778-3.222 3.222-4.741 3.222-7.778zM21 12c0 2.486-1.006 4.734-2.636 6.364s-3.878 2.636-6.364 2.636-4.734-1.006-6.364-2.636-2.636-3.878-2.636-6.364 1.006-4.734 2.636-6.364 3.878-2.636 6.364-2.636 4.734 1.006 6.364 2.636 2.636 3.878 2.636 6.364zM11 8v4c0 0.552 0.448 1 1 1s1-0.448 1-1v-4c0-0.552-0.448-1-1-1s-1 0.448-1 1zM12 17c0.552 0 1-0.448 1-1s-0.448-1-1-1-1 0.448-1 1 0.448 1 1 1z"></path>
</symbol>
<symbol id="icon-alert-triangle" viewBox="0 0 24 24">
<path d="M11.148 4.374c0.073-0.123 0.185-0.242 0.334-0.332 0.236-0.143 0.506-0.178 0.756-0.116s0.474 0.216 0.614 0.448l8.466 14.133c0.070 0.12 0.119 0.268 0.128 0.434-0.015 0.368-0.119 0.591-0.283 0.759-0.18 0.184-0.427 0.298-0.693 0.301l-16.937-0.001c-0.152-0.001-0.321-0.041-0.481-0.134-0.239-0.138-0.399-0.359-0.466-0.607s-0.038-0.519 0.092-0.745zM9.432 3.346l-8.47 14.14c-0.422 0.731-0.506 1.55-0.308 2.29s0.68 1.408 1.398 1.822c0.464 0.268 0.976 0.4 1.475 0.402h16.943c0.839-0.009 1.587-0.354 2.123-0.902s0.864-1.303 0.855-2.131c-0.006-0.536-0.153-1.044-0.406-1.474l-8.474-14.147c-0.432-0.713-1.11-1.181-1.854-1.363s-1.561-0.081-2.269 0.349c-0.429 0.26-0.775 0.615-1.012 1.014zM11 9v4c0 0.552 0.448 1 1 1s1-0.448 1-1v-4c0-0.552-0.448-1-1-1s-1 0.448-1 1zM12 18c0.552 0 1-0.448 1-1s-0.448-1-1-1-1 0.448-1 1 0.448 1 1 1z"></path>
</symbol>
<symbol id="icon-battery" viewBox="0 0 24 24">
<path d="M3 5c-0.828 0-1.58 0.337-2.121 0.879s-0.879 1.293-0.879 2.121v8c0 0.828 0.337 1.58 0.879 2.121s1.293 0.879 2.121 0.879h14c0.828 0 1.58-0.337 2.121-0.879s0.879-1.293 0.879-2.121v-8c0-0.828-0.337-1.58-0.879-2.121s-1.293-0.879-2.121-0.879zM3 7h14c0.276 0 0.525 0.111 0.707 0.293s0.293 0.431 0.293 0.707v8c0 0.276-0.111 0.525-0.293 0.707s-0.431 0.293-0.707 0.293h-14c-0.276 0-0.525-0.111-0.707-0.293s-0.293-0.431-0.293-0.707v-8c0-0.276 0.111-0.525 0.293-0.707s0.431-0.293 0.707-0.293zM24 13v-2c0-0.552-0.448-1-1-1s-1 0.448-1 1v2c0 0.552 0.448 1 1 1s1-0.448 1-1z"></path>
</symbol>
<symbol id="icon-bell" viewBox="0 0 24 24">
<path d="M17 8c0 4.011 0.947 6.52 1.851 8h-13.702c0.904-1.48 1.851-3.989 1.851-8 0-1.381 0.559-2.63 1.464-3.536s2.155-1.464 3.536-1.464 2.63 0.559 3.536 1.464 1.464 2.155 1.464 3.536zM19 8c0-1.933-0.785-3.684-2.050-4.95s-3.017-2.050-4.95-2.050-3.684 0.785-4.95 2.050-2.050 3.017-2.050 4.95c0 6.127-2.393 8.047-2.563 8.174-0.453 0.308-0.573 0.924-0.269 1.381 0.192 0.287 0.506 0.443 0.832 0.445h18c0.552 0 1-0.448 1-1 0-0.339-0.168-0.638-0.429-0.821-0.176-0.13-2.571-2.050-2.571-8.179zM12.865 20.498c-0.139 0.239-0.359 0.399-0.608 0.465s-0.52 0.037-0.759-0.101c-0.162-0.094-0.283-0.222-0.359-0.357-0.274-0.48-0.884-0.647-1.364-0.373s-0.647 0.884-0.373 1.364c0.25 0.439 0.623 0.823 1.093 1.096 0.716 0.416 1.535 0.501 2.276 0.304s1.409-0.678 1.824-1.394c0.277-0.478 0.114-1.090-0.363-1.367s-1.090-0.114-1.367 0.363z"></path>
</symbol>
<symbol id="icon-check" viewBox="0 0 24 24">
<path d="M19.293 5.293l-10.293 10.293-4.293-4.293c-0.391-0.391-1.024-0.391-1.414 0s-0.391 1.024 0 1.414l5 5c0.391 0.391 1.024 0.391 1.414 0l11-11c0.391-0.391 0.391-1.024 0-1.414s-1.024-0.391-1.414 0z"></path>
</symbol>
<symbol id="icon-chevron-left" viewBox="0 0 24 24">
<path d="M15.707 17.293l-5.293-5.293 5.293-5.293c0.391-0.391 0.391-1.024 0-1.414s-1.024-0.391-1.414 0l-6 6c-0.391 0.391-0.391 1.024 0 1.414l6 6c0.391 0.391 1.024 0.391 1.414 0s0.391-1.024 0-1.414z"></path>
</symbol>
<symbol id="icon-chevron-right" viewBox="0 0 24 24">
<path d="M9.707 18.707l6-6c0.391-0.391 0.391-1.024 0-1.414l-6-6c-0.391-0.391-1.024-0.391-1.414 0s-0.391 1.024 0 1.414l5.293 5.293-5.293 5.293c-0.391 0.391-0.391 1.024 0 1.414s1.024 0.391 1.414 0z"></path>
</symbol>
<symbol id="icon-chevrons-down" viewBox="0 0 24 24">
<path d="M6.293 13.707l5 5c0.391 0.391 1.024 0.391 1.414 0l5-5c0.391-0.391 0.391-1.024 0-1.414s-1.024-0.391-1.414 0l-4.293 4.293-4.293-4.293c-0.391-0.391-1.024-0.391-1.414 0s-0.391 1.024 0 1.414zM6.293 6.707l5 5c0.391 0.391 1.024 0.391 1.414 0l5-5c0.391-0.391 0.391-1.024 0-1.414s-1.024-0.391-1.414 0l-4.293 4.293-4.293-4.293c-0.391-0.391-1.024-0.391-1.414 0s-0.391 1.024 0 1.414z"></path>
</symbol>
<symbol id="icon-download" viewBox="0 0 24 24">
<path d="M20 15v4c0 0.276-0.111 0.525-0.293 0.707s-0.431 0.293-0.707 0.293h-14c-0.276 0-0.525-0.111-0.707-0.293s-0.293-0.431-0.293-0.707v-4c0-0.552-0.448-1-1-1s-1 0.448-1 1v4c0 0.828 0.337 1.58 0.879 2.121s1.293 0.879 2.121 0.879h14c0.828 0 1.58-0.337 2.121-0.879s0.879-1.293 0.879-2.121v-4c0-0.552-0.448-1-1-1s-1 0.448-1 1zM13 12.586v-9.586c0-0.552-0.448-1-1-1s-1 0.448-1 1v9.586l-3.293-3.293c-0.391-0.391-1.024-0.391-1.414 0s-0.391 1.024 0 1.414l5 5c0.092 0.092 0.202 0.166 0.324 0.217s0.253 0.076 0.383 0.076c0.256 0 0.512-0.098 0.707-0.293l5-5c0.391-0.391 0.391-1.024 0-1.414s-1.024-0.391-1.414 0z"></path>
</symbol>
<symbol id="icon-facebook" viewBox="0 0 24 24">
<path d="M17 3v2h-2c-0.552 0-1.053 0.225-1.414 0.586s-0.586 0.862-0.586 1.414v3c0 0.552 0.448 1 1 1h2.719l-0.5 2h-2.219c-0.552 0-1 0.448-1 1v7h-2v-7c0-0.552-0.448-1-1-1h-2v-2h2c0.552 0 1-0.448 1-1v-3c0-1.105 0.447-2.103 1.172-2.828s1.723-1.172 2.828-1.172zM18 1h-3c-1.657 0-3.158 0.673-4.243 1.757s-1.757 2.586-1.757 4.243v2h-2c-0.552 0-1 0.448-1 1v4c0 0.552 0.448 1 1 1h2v7c0 0.552 0.448 1 1 1h4c0.552 0 1-0.448 1-1v-7h2c0.466 0 0.858-0.319 0.97-0.757l1-4c0.134-0.536-0.192-1.079-0.728-1.213-0.083-0.021-0.167-0.031-0.242-0.030h-3v-2h3c0.552 0 1-0.448 1-1v-4c0-0.552-0.448-1-1-1z"></path>
</symbol>
<symbol id="icon-globe" viewBox="0 0 24 24">
<path d="M16.951 11c-0.214-2.69-1.102-5.353-2.674-7.71 1.57 0.409 2.973 1.232 4.087 2.346 1.408 1.408 2.351 3.278 2.581 5.364zM14.279 20.709c1.483-2.226 2.437-4.853 2.669-7.709h3.997c-0.23 2.086-1.173 3.956-2.581 5.364-1.113 1.113-2.516 1.936-4.085 2.345zM7.049 13c0.214 2.69 1.102 5.353 2.674 7.71-1.57-0.409-2.973-1.232-4.087-2.346-1.408-1.408-2.351-3.278-2.581-5.364zM9.721 3.291c-1.482 2.226-2.436 4.853-2.669 7.709h-3.997c0.23-2.086 1.173-3.956 2.581-5.364 1.114-1.113 2.516-1.936 4.085-2.345zM12.004 1c0 0 0 0 0 0-3.044 0.001-5.794 1.233-7.782 3.222-1.99 1.989-3.222 4.741-3.222 7.778s1.232 5.789 3.222 7.778c1.988 1.989 4.738 3.221 7.774 3.222 0 0 0 0 0 0 3.044-0.001 5.793-1.233 7.782-3.222 1.99-1.989 3.222-4.741 3.222-7.778s-1.232-5.789-3.222-7.778c-1.988-1.989-4.738-3.221-7.774-3.222zM14.946 13c-0.252 2.788-1.316 5.36-2.945 7.451-1.729-2.221-2.706-4.818-2.945-7.451zM11.999 3.549c1.729 2.221 2.706 4.818 2.945 7.451h-5.89c0.252-2.788 1.316-5.36 2.945-7.451z"></path>
</symbol>
<symbol id="icon-help-circle" viewBox="0 0 24 24">
<path d="M23 12c0-3.037-1.232-5.789-3.222-7.778s-4.741-3.222-7.778-3.222-5.789 1.232-7.778 3.222-3.222 4.741-3.222 7.778 1.232 5.789 3.222 7.778 4.741 3.222 7.778 3.222 5.789-1.232 7.778-3.222 3.222-4.741 3.222-7.778zM21 12c0 2.486-1.006 4.734-2.636 6.364s-3.878 2.636-6.364 2.636-4.734-1.006-6.364-2.636-2.636-3.878-2.636-6.364 1.006-4.734 2.636-6.364 3.878-2.636 6.364-2.636 4.734 1.006 6.364 2.636 2.636 3.878 2.636 6.364zM10.033 9.332c0.183-0.521 0.559-0.918 1.022-1.14s1.007-0.267 1.528-0.083c0.458 0.161 0.819 0.47 1.050 0.859 0.183 0.307 0.284 0.665 0.286 1.037 0 0.155-0.039 0.309-0.117 0.464-0.080 0.16-0.203 0.325-0.368 0.49-0.709 0.709-1.831 1.092-1.831 1.092-0.524 0.175-0.807 0.741-0.632 1.265s0.741 0.807 1.265 0.632c0 0 1.544-0.506 2.613-1.575 0.279-0.279 0.545-0.614 0.743-1.010 0.2-0.4 0.328-0.858 0.328-1.369-0.004-0.731-0.204-1.437-0.567-2.049-0.463-0.778-1.19-1.402-2.105-1.724-1.042-0.366-2.135-0.275-3.057 0.167s-1.678 1.238-2.044 2.28c-0.184 0.521 0.090 1.092 0.611 1.275s1.092-0.091 1.275-0.611zM12 18c0.552 0 1-0.448 1-1s-0.448-1-1-1-1 0.448-1 1 0.448 1 1 1z"></path>
</symbol>
<symbol id="icon-instagram" viewBox="0 0 24 24">
<path d="M7 1c-1.657 0-3.158 0.673-4.243 1.757s-1.757 2.586-1.757 4.243v10c0 1.657 0.673 3.158 1.757 4.243s2.586 1.757 4.243 1.757h10c1.657 0 3.158-0.673 4.243-1.757s1.757-2.586 1.757-4.243v-10c0-1.657-0.673-3.158-1.757-4.243s-2.586-1.757-4.243-1.757zM7 3h10c1.105 0 2.103 0.447 2.828 1.172s1.172 1.723 1.172 2.828v10c0 1.105-0.447 2.103-1.172 2.828s-1.723 1.172-2.828 1.172h-10c-1.105 0-2.103-0.447-2.828-1.172s-1.172-1.723-1.172-2.828v-10c0-1.105 0.447-2.103 1.172-2.828s1.723-1.172 2.828-1.172zM16.989 11.223c-0.15-0.972-0.571-1.857-1.194-2.567-0.754-0.861-1.804-1.465-3.009-1.644-0.464-0.074-0.97-0.077-1.477-0.002-1.366 0.202-2.521 0.941-3.282 1.967s-1.133 2.347-0.93 3.712 0.941 2.521 1.967 3.282 2.347 1.133 3.712 0.93 2.521-0.941 3.282-1.967 1.133-2.347 0.93-3.712zM15.011 11.517c0.122 0.82-0.1 1.609-0.558 2.227s-1.15 1.059-1.969 1.18-1.609-0.1-2.227-0.558-1.059-1.15-1.18-1.969 0.1-1.609 0.558-2.227 1.15-1.059 1.969-1.18c0.313-0.046 0.615-0.042 0.87-0.002 0.74 0.11 1.366 0.47 1.818 0.986 0.375 0.428 0.63 0.963 0.72 1.543zM17.5 7.5c0.552 0 1-0.448 1-1s-0.448-1-1-1-1 0.448-1 1 0.448 1 1 1z"></path>
</symbol>
<symbol id="icon-layout" viewBox="0 0 24 24">
<path d="M5 2c-0.828 0-1.58 0.337-2.121 0.879s-0.879 1.293-0.879 2.121v14c0 0.828 0.337 1.58 0.879 2.121s1.293 0.879 2.121 0.879h14c0.828 0 1.58-0.337 2.121-0.879s0.879-1.293 0.879-2.121v-14c0-0.828-0.337-1.58-0.879-2.121s-1.293-0.879-2.121-0.879zM20 8h-16v-3c0-0.276 0.111-0.525 0.293-0.707s0.431-0.293 0.707-0.293h14c0.276 0 0.525 0.111 0.707 0.293s0.293 0.431 0.293 0.707zM8 10v10h-3c-0.276 0-0.525-0.111-0.707-0.293s-0.293-0.431-0.293-0.707v-9zM10 20v-10h10v9c0 0.276-0.111 0.525-0.293 0.707s-0.431 0.293-0.707 0.293z"></path>
</symbol>
<symbol id="icon-lock" viewBox="0 0 24 24">
<path d="M5 12h14c0.276 0 0.525 0.111 0.707 0.293s0.293 0.431 0.293 0.707v7c0 0.276-0.111 0.525-0.293 0.707s-0.431 0.293-0.707 0.293h-14c-0.276 0-0.525-0.111-0.707-0.293s-0.293-0.431-0.293-0.707v-7c0-0.276 0.111-0.525 0.293-0.707s0.431-0.293 0.707-0.293zM18 10v-3c0-1.657-0.673-3.158-1.757-4.243s-2.586-1.757-4.243-1.757-3.158 0.673-4.243 1.757-1.757 2.586-1.757 4.243v3h-1c-0.828 0-1.58 0.337-2.121 0.879s-0.879 1.293-0.879 2.121v7c0 0.828 0.337 1.58 0.879 2.121s1.293 0.879 2.121 0.879h14c0.828 0 1.58-0.337 2.121-0.879s0.879-1.293 0.879-2.121v-7c0-0.828-0.337-1.58-0.879-2.121s-1.293-0.879-2.121-0.879zM8 10v-3c0-1.105 0.447-2.103 1.172-2.828s1.723-1.172 2.828-1.172 2.103 0.447 2.828 1.172 1.172 1.723 1.172 2.828v3z"></path>
</symbol>
<symbol id="icon-menu" viewBox="0 0 24 24">
<path d="M3 13h18c0.552 0 1-0.448 1-1s-0.448-1-1-1h-18c-0.552 0-1 0.448-1 1s0.448 1 1 1zM3 7h18c0.552 0 1-0.448 1-1s-0.448-1-1-1h-18c-0.552 0-1 0.448-1 1s0.448 1 1 1zM3 19h18c0.552 0 1-0.448 1-1s-0.448-1-1-1h-18c-0.552 0-1 0.448-1 1s0.448 1 1 1z"></path>
</symbol>
<symbol id="icon-monitor" viewBox="0 0 24 24">
<path d="M12 16h-8c-0.276 0-0.525-0.111-0.707-0.293s-0.293-0.431-0.293-0.707v-10c0-0.276 0.111-0.525 0.293-0.707s0.431-0.293 0.707-0.293h16c0.276 0 0.525 0.111 0.707 0.293s0.293 0.431 0.293 0.707v10c0 0.276-0.111 0.525-0.293 0.707s-0.431 0.293-0.707 0.293zM11 18v2h-3c-0.552 0-1 0.448-1 1s0.448 1 1 1h8c0.552 0 1-0.448 1-1s-0.448-1-1-1h-3v-2h7c0.828 0 1.58-0.337 2.121-0.879s0.879-1.293 0.879-2.121v-10c0-0.828-0.337-1.58-0.879-2.121s-1.293-0.879-2.121-0.879h-16c-0.828 0-1.58 0.337-2.121 0.879s-0.879 1.293-0.879 2.121v10c0 0.828 0.337 1.58 0.879 2.121s1.293 0.879 2.121 0.879z"></path>
</symbol>
<symbol id="icon-radio" viewBox="0 0 24 24">
<path d="M15 12c0-0.828-0.337-1.58-0.879-2.121s-1.293-0.879-2.121-0.879-1.58 0.337-2.121 0.879-0.879 1.293-0.879 2.121 0.337 1.58 0.879 2.121 1.293 0.879 2.121 0.879 1.58-0.337 2.121-0.879 0.879-1.293 0.879-2.121zM13 12c0 0.276-0.111 0.525-0.293 0.707s-0.431 0.293-0.707 0.293-0.525-0.111-0.707-0.293-0.293-0.431-0.293-0.707 0.111-0.525 0.293-0.707 0.431-0.293 0.707-0.293 0.525 0.111 0.707 0.293 0.293 0.431 0.293 0.707zM15.533 8.468c0.977 0.976 1.466 2.254 1.466 3.535s-0.487 2.559-1.462 3.536c-0.39 0.391-0.39 1.024 0.001 1.414s1.024 0.39 1.414-0.001c1.366-1.367 2.048-3.161 2.047-4.951s-0.686-3.583-2.053-4.949c-0.391-0.39-1.024-0.39-1.414 0.001s-0.39 1.024 0.001 1.414zM8.467 15.532c-0.977-0.975-1.466-2.253-1.467-3.534s0.487-2.559 1.462-3.536c0.39-0.391 0.39-1.024-0.001-1.414s-1.024-0.39-1.414 0.001c-1.365 1.366-2.048 3.16-2.047 4.95s0.686 3.583 2.053 4.949c0.391 0.39 1.024 0.39 1.414-0.001s0.39-1.024-0.001-1.414zM18.363 5.637c1.757 1.758 2.635 4.059 2.635 6.364 0 2.304-0.878 4.605-2.635 6.362-0.39 0.391-0.39 1.024 0 1.414s1.024 0.39 1.414 0c2.147-2.147 3.22-4.963 3.221-7.776 0-2.815-1.074-5.631-3.221-7.778-0.39-0.391-1.024-0.391-1.414 0s-0.391 1.024 0 1.414zM5.637 18.363c-1.757-1.758-2.635-4.059-2.635-6.364 0-2.304 0.878-4.605 2.635-6.362 0.39-0.391 0.39-1.024 0-1.414s-1.024-0.39-1.414 0c-2.147 2.147-3.22 4.963-3.221 7.776s1.074 5.63 3.221 7.778c0.39 0.391 1.024 0.391 1.414 0s0.391-1.024 0-1.414z"></path>
</symbol>
<symbol id="icon-rotate-ccw" viewBox="0 0 24 24">
<path d="M2.567 15.332c0.918 2.604 2.805 4.591 5.112 5.696s5.038 1.33 7.643 0.413 4.591-2.805 5.696-5.112 1.33-5.038 0.413-7.643-2.805-4.591-5.112-5.696-5.038-1.33-7.643-0.413c-1.474 0.52-2.755 1.352-3.749 2.362l-2.927 2.75v-3.689c0-0.552-0.448-1-1-1s-1 0.448-1 1v5.998c0 0.015 0 0.030 0.001 0.044 0.005 0.115 0.029 0.225 0.069 0.326 0.040 0.102 0.098 0.198 0.173 0.285 0.012 0.013 0.024 0.027 0.036 0.039 0.091 0.095 0.201 0.172 0.324 0.225 0.119 0.051 0.249 0.080 0.386 0.082 0.004 0 0.007 0 0.011 0h6c0.552 0 1-0.448 1-1s-0.448-0.999-1-0.999h-3.476l2.829-2.659c0.779-0.792 1.8-1.459 2.987-1.877 2.084-0.734 4.266-0.555 6.114 0.33s3.356 2.473 4.090 4.557 0.555 4.266-0.33 6.114-2.473 3.356-4.557 4.090-4.266 0.555-6.114-0.33-3.356-2.473-4.090-4.557c-0.184-0.521-0.755-0.794-1.275-0.611s-0.794 0.755-0.611 1.275z"></path>
</symbol>
<symbol id="icon-shield" viewBox="0 0 24 24">
<path d="M12 20.862c-1.184-0.672-4.42-2.695-6.050-5.549-0.079-0.138-0.153-0.276-0.223-0.417-0.456-0.911-0.727-1.878-0.727-2.896v-6.307l7-2.625 7 2.625v6.307c0 1.018-0.271 1.985-0.726 2.897-0.070 0.14-0.145 0.279-0.223 0.417-1.631 2.854-4.867 4.876-6.050 5.549zM12.447 22.894c0 0 4.989-2.475 7.34-6.589 0.096-0.168 0.188-0.34 0.276-0.515 0.568-1.135 0.937-2.408 0.937-3.79v-7c0-0.426-0.267-0.79-0.649-0.936l-8-3c-0.236-0.089-0.485-0.082-0.702 0l-8 3c-0.399 0.149-0.646 0.527-0.649 0.936v7c0 1.382 0.369 2.655 0.938 3.791 0.087 0.175 0.179 0.346 0.276 0.515 2.351 4.114 7.34 6.589 7.34 6.589 0.292 0.146 0.62 0.136 0.894 0z"></path>
</symbol>
<symbol id="icon-thumbs-up" viewBox="0 0 24 24">
<path d="M13 9c0 0.552 0.448 1 1 1h5.679c0.065 0.002 0.153 0.011 0.153 0.011 0.273 0.041 0.502 0.188 0.655 0.396s0.225 0.47 0.184 0.742l-1.38 8.998c-0.037 0.239-0.156 0.448-0.325 0.6-0.18 0.161-0.415 0.256-0.686 0.253h-10.28v-9.788l3.608-8.118c0.307 0.098 0.582 0.268 0.806 0.492 0.363 0.363 0.586 0.861 0.586 1.414zM15 8v-3c0-1.104-0.449-2.106-1.172-2.828s-1.724-1.172-2.828-1.172c-0.405 0-0.754 0.241-0.914 0.594l-4 9c-0.060 0.134-0.087 0.275-0.086 0.406v11c0 0.552 0.448 1 1 1h11.28c0.767 0.009 1.482-0.281 2.021-0.763 0.505-0.452 0.857-1.076 0.967-1.783l1.38-9.002c0.125-0.82-0.096-1.614-0.55-2.231s-1.147-1.063-1.965-1.187c-0.165-0.025-0.333-0.037-0.492-0.034zM7 21h-3c-0.276 0-0.525-0.111-0.707-0.293s-0.293-0.431-0.293-0.707v-7c0-0.276 0.111-0.525 0.293-0.707s0.431-0.293 0.707-0.293h3c0.552 0 1-0.448 1-1s-0.448-1-1-1h-3c-0.828 0-1.58 0.337-2.121 0.879s-0.879 1.293-0.879 2.121v7c0 0.828 0.337 1.58 0.879 2.121s1.293 0.879 2.121 0.879h3c0.552 0 1-0.448 1-1s-0.448-1-1-1z"></path>
</symbol>
<symbol id="icon-tool" viewBox="0 0 24 24">
<path d="M15.407 6.993l3.77-3.756c0.081-0.079 0.152-0.18 0.205-0.296 0.227-0.504 0.002-1.096-0.501-1.322-0.263-0.118-0.532-0.22-0.807-0.306-1.582-0.492-3.34-0.428-4.963 0.307-1.761 0.797-3.033 2.234-3.664 3.909-0.554 1.467-0.617 3.124-0.087 4.697l-6.447 6.447c-0.609 0.609-0.914 1.41-0.914 2.207s0.305 1.598 0.914 2.207 1.41 0.914 2.207 0.914 1.598-0.305 2.207-0.914l6.448-6.448c0.050 0.017 0.1 0.033 0.151 0.049 1.582 0.492 3.34 0.428 4.963-0.307 1.761-0.797 3.033-2.234 3.664-3.909s0.624-3.594-0.173-5.355c-0.045-0.103-0.114-0.205-0.204-0.295-0.391-0.391-1.024-0.391-1.414 0l-3.756 3.77zM13.986 5.6c-0.383 0.39-0.573 0.9-0.572 1.406 0.002 0.502 0.192 1.007 0.571 1.394l1.607 1.608c0.398 0.39 0.907 0.58 1.413 0.579 0.502-0.002 1.007-0.192 1.394-0.571l2.574-2.574c0.090 0.796-0.015 1.593-0.291 2.326-0.452 1.199-1.359 2.222-2.617 2.792-1.16 0.525-2.412 0.571-3.545 0.219-0.197-0.061-0.391-0.135-0.579-0.22-0.387-0.174-0.827-0.082-1.118 0.205l-6.91 6.91c-0.219 0.219-0.504 0.328-0.793 0.328s-0.574-0.109-0.793-0.328-0.328-0.504-0.328-0.793 0.109-0.574 0.328-0.793l6.91-6.91c0.301-0.301 0.37-0.746 0.204-1.119-0.569-1.258-0.575-2.626-0.123-3.825s1.359-2.222 2.617-2.792c0.852-0.386 1.755-0.513 2.623-0.413z"></path>
</symbol>
<symbol id="icon-twitter" viewBox="0 0 24 24">
<path d="M20.833 5.262c-0.186 0.242-0.391 0.475-0.616 0.696-0.233 0.232-0.347 0.567-0.278 0.908 0.037 0.182 0.060 0.404 0.061 0.634 0 5.256-2.429 8.971-5.81 10.898-2.647 1.509-5.938 1.955-9.222 1.12 1.245-0.361 2.46-0.921 3.593-1.69 0.147-0.099 0.273-0.243 0.352-0.421 0.224-0.505-0.003-1.096-0.508-1.32-2.774-1.233-4.13-2.931-4.769-4.593-0.417-1.084-0.546-2.198-0.52-3.227 0.021-0.811 0.138-1.56 0.278-2.182 0.394 0.343 0.803 0.706 1.235 1.038 2.051 1.577 4.624 2.479 7.395 2.407 0.543-0.015 0.976-0.457 0.976-1v-1.011c-0.002-0.179 0.009-0.357 0.034-0.533 0.113-0.806 0.504-1.569 1.162-2.141 0.725-0.631 1.636-0.908 2.526-0.846s1.753 0.463 2.384 1.188c0.252 0.286 0.649 0.416 1.033 0.304 0.231-0.067 0.463-0.143 0.695-0.228zM22.424 2.183c-0.74 0.522-1.523 0.926-2.287 1.205-0.931-0.836-2.091-1.302-3.276-1.385-1.398-0.097-2.836 0.339-3.977 1.332-1.036 0.901-1.652 2.108-1.83 3.372-0.037 0.265-0.055 0.532-0.054 0.8-1.922-0.142-3.693-0.85-5.15-1.97-0.775-0.596-1.462-1.309-2.034-2.116-0.32-0.45-0.944-0.557-1.394-0.237-0.154 0.109-0.267 0.253-0.335 0.409 0 0-0.132 0.299-0.285 0.76-0.112 0.337-0.241 0.775-0.357 1.29-0.163 0.722-0.302 1.602-0.326 2.571-0.031 1.227 0.12 2.612 0.652 3.996 0.683 1.775 1.966 3.478 4.147 4.823-1.569 0.726-3.245 1.039-4.873 0.967-0.552-0.024-1.019 0.403-1.043 0.955-0.017 0.389 0.19 0.736 0.513 0.918 4.905 2.725 10.426 2.678 14.666 0.261 4.040-2.301 6.819-6.7 6.819-12.634-0.001-0.167-0.008-0.33-0.023-0.489 1.006-1.115 1.676-2.429 1.996-3.781 0.127-0.537-0.206-1.076-0.743-1.203-0.29-0.069-0.58-0.003-0.807 0.156z"></path>
</symbol>
<symbol id="icon-unlock" viewBox="0 0 24 24">
<path d="M5 12h14c0.276 0 0.525 0.111 0.707 0.293s0.293 0.431 0.293 0.707v7c0 0.276-0.111 0.525-0.293 0.707s-0.431 0.293-0.707 0.293h-14c-0.276 0-0.525-0.111-0.707-0.293s-0.293-0.431-0.293-0.707v-7c0-0.276 0.111-0.525 0.293-0.707s0.431-0.293 0.707-0.293zM8 10v-3c-0.001-1.106 0.445-2.105 1.169-2.831 0.723-0.724 1.719-1.172 2.821-1.174 1.030 0.003 1.948 0.378 2.652 1 0.638 0.565 1.097 1.332 1.28 2.209 0.113 0.541 0.642 0.888 1.183 0.775s0.888-0.642 0.775-1.183c-0.272-1.307-0.958-2.454-1.912-3.299-1.060-0.938-2.452-1.504-3.973-1.502-1.657 0.002-3.157 0.676-4.241 1.762s-1.756 2.587-1.754 4.243v3h-1c-0.828 0-1.58 0.337-2.121 0.879s-0.879 1.293-0.879 2.121v7c0 0.828 0.337 1.58 0.879 2.121s1.293 0.879 2.121 0.879h14c0.828 0 1.58-0.337 2.121-0.879s0.879-1.293 0.879-2.121v-7c0-0.828-0.337-1.58-0.879-2.121s-1.293-0.879-2.121-0.879z"></path>
</symbol>
<symbol id="icon-x" viewBox="0 0 24 24">
<path d="M5.293 6.707l5.293 5.293-5.293 5.293c-0.391 0.391-0.391 1.024 0 1.414s1.024 0.391 1.414 0l5.293-5.293 5.293 5.293c0.391 0.391 1.024 0.391 1.414 0s0.391-1.024 0-1.414l-5.293-5.293 5.293-5.293c0.391-0.391 0.391-1.024 0-1.414s-1.024-0.391-1.414 0l-5.293 5.293-5.293-5.293c-0.391-0.391-1.024-0.391-1.414 0s-0.391 1.024 0 1.414z"></path>
</symbol>
<symbol id="icon-times-outline" viewBox="0 0 24 24">
<path d="M16 19c-0.802 0-1.555-0.312-2.122-0.879l-1.878-1.879-1.879 1.879c-1.133 1.133-3.109 1.133-4.243 0-0.566-0.566-0.878-1.32-0.878-2.121s0.312-1.555 0.879-2.122l1.878-1.878-1.878-1.879c-0.567-0.566-0.879-1.32-0.879-2.121s0.312-1.555 0.879-2.122c1.133-1.132 3.109-1.133 4.243 0.001l1.878 1.879 1.879-1.879c1.133-1.133 3.109-1.133 4.243 0 0.566 0.566 0.878 1.32 0.878 2.121s-0.312 1.555-0.879 2.122l-1.878 1.878 1.878 1.879c0.567 0.566 0.879 1.32 0.879 2.121s-0.312 1.555-0.879 2.122c-0.566 0.566-1.319 0.878-2.121 0.878zM12 13.414l3.293 3.293c0.378 0.378 1.037 0.377 1.414 0 0.189-0.189 0.293-0.439 0.293-0.707s-0.104-0.518-0.293-0.707l-3.292-3.293 3.292-3.293c0.189-0.189 0.293-0.44 0.293-0.707s-0.104-0.518-0.293-0.707c-0.378-0.379-1.037-0.378-1.414-0.001l-3.293 3.294-3.293-3.293c-0.378-0.378-1.037-0.377-1.414 0-0.189 0.189-0.293 0.44-0.293 0.707s0.104 0.518 0.293 0.707l3.292 3.293-3.292 3.293c-0.189 0.189-0.293 0.439-0.293 0.707s0.104 0.518 0.293 0.707c0.378 0.379 1.037 0.378 1.414 0.001l3.293-3.294z"></path>
</symbol>
<symbol id="icon-plus-outline" viewBox="0 0 24 24">
<path d="M12 21c-1.654 0-3-1.346-3-3l0.053-3.053-3.035 0.053c-1.672 0-3.018-1.346-3.018-3s1.346-3 3-3l3.053-0.054-0.053-2.928c0-1.672 1.346-3.018 3-3.018s3 1.346 3 3l0.055 2.946 2.963 0.054c1.636 0 2.982 1.346 2.982 3s-1.346 3-3 3l-2.945-0.053-0.055 3.071c0 1.636-1.346 2.982-3 2.982zM11 13v5.018c0 0.533 0.449 0.982 1 0.982s1-0.449 1-1v-5h5.018c0.533 0 0.982-0.449 0.982-1s-0.449-1-1-1h-5v-5c0-0.569-0.449-1-1-1s-1 0.449-1 1v5h-5c-0.569 0-1 0.449-1 1s0.449 1 1 1h5z"></path>
</symbol>
<symbol id="icon-minus-outline" viewBox="0 0 24 24">
<path d="M18 16h-12c-1.654 0-3-1.346-3-3s1.346-3 3-3h12c1.654 0 3 1.346 3 3s-1.346 3-3 3zM6 12c-0.551 0-1 0.449-1 1s0.449 1 1 1h12c0.551 0 1-0.449 1-1s-0.449-1-1-1h-12z"></path>
</symbol>
<symbol id="icon-tick-outline" viewBox="0 0 24 24">
<path d="M11 20c-0.801 0-1.555-0.312-2.121-0.879l-4-4c-0.567-0.566-0.879-1.32-0.879-2.121s0.312-1.555 0.879-2.122c1.133-1.133 3.109-1.133 4.242 0l1.188 1.188 3.069-5.523c0.526-0.952 1.533-1.544 2.624-1.544 0.507 0 1.012 0.131 1.456 0.378 0.7 0.39 1.206 1.028 1.427 1.798s0.127 1.581-0.263 2.282l-5 9c-0.454 0.818-1.279 1.384-2.206 1.514-0.139 0.019-0.277 0.029-0.416 0.029zM7 12c-0.268 0-0.518 0.104-0.707 0.293s-0.293 0.439-0.293 0.707 0.104 0.518 0.293 0.707l4 4c0.223 0.221 0.523 0.33 0.844 0.283 0.312-0.043 0.586-0.232 0.737-0.504l5-9c0.13-0.233 0.161-0.503 0.088-0.76s-0.243-0.47-0.478-0.6c-0.473-0.264-1.101-0.078-1.357 0.388l-4.357 7.841-3.062-3.062c-0.19-0.189-0.44-0.293-0.708-0.293z"></path>
</symbol>
<symbol id="icon-th-large-outline" viewBox="0 0 24 24">
<path d="M9 2h-5c-1.103 0-2 0.896-2 2v5c0 1.104 0.897 2 2 2h5c1.103 0 2-0.896 2-2v-5c0-1.104-0.897-2-2-2zM9 9h-5v-5h5v5z"></path>
<path d="M20 2h-5c-1.104 0-2 0.896-2 2v5c0 1.104 0.896 2 2 2h5c1.104 0 2-0.896 2-2v-5c0-1.104-0.896-2-2-2zM20 9h-5v-5h5v5z"></path>
<path d="M9 13h-5c-1.103 0-2 0.896-2 2v5c0 1.104 0.897 2 2 2h5c1.103 0 2-0.896 2-2v-5c0-1.104-0.897-2-2-2zM9 20h-5v-5h5v5z"></path>
<path d="M20 13h-5c-1.104 0-2 0.896-2 2v5c0 1.104 0.896 2 2 2h5c1.104 0 2-0.896 2-2v-5c0-1.104-0.896-2-2-2zM20 20h-5v-5h5v5z"></path>
</symbol>
<symbol id="icon-th-menu-outline" viewBox="0 0 24 24">
<path d="M19 18c0.55 0 1 0.45 1 1s-0.45 1-1 1h-14c-0.55 0-1-0.45-1-1s0.45-1 1-1h14M19 16h-14c-1.654 0-3 1.346-3 3s1.346 3 3 3h14c1.654 0 3-1.346 3-3s-1.346-3-3-3z"></path>
<path d="M19 11c0.55 0 1 0.45 1 1s-0.45 1-1 1h-14c-0.55 0-1-0.45-1-1s0.45-1 1-1h14M19 9h-14c-1.654 0-3 1.346-3 3s1.346 3 3 3h14c1.654 0 3-1.346 3-3s-1.346-3-3-3z"></path>
<path d="M19 4c0.55 0 1 0.45 1 1s-0.45 1-1 1h-14c-0.55 0-1-0.45-1-1s0.45-1 1-1h14M19 2h-14c-1.654 0-3 1.346-3 3s1.346 3 3 3h14c1.654 0 3-1.346 3-3s-1.346-3-3-3z"></path>
</symbol>
<symbol id="icon-th-list-outline" viewBox="0 0 24 24">
<path d="M19 18c0.55 0 1 0.45 1 1s-0.45 1-1 1h-7c-0.55 0-1-0.45-1-1s0.45-1 1-1h7M19 16h-7c-1.654 0-3 1.346-3 3s1.346 3 3 3h7c1.654 0 3-1.346 3-3s-1.346-3-3-3z"></path>
<path d="M19 11c0.55 0 1 0.45 1 1s-0.45 1-1 1h-7c-0.55 0-1-0.45-1-1s0.45-1 1-1h7M19 9h-7c-1.654 0-3 1.346-3 3s1.346 3 3 3h7c1.654 0 3-1.346 3-3s-1.346-3-3-3z"></path>
<path d="M19 4c0.55 0 1 0.45 1 1s-0.45 1-1 1h-7c-0.55 0-1-0.45-1-1s0.45-1 1-1h7M19 2h-7c-1.654 0-3 1.346-3 3s1.346 3 3 3h7c1.654 0 3-1.346 3-3s-1.346-3-3-3z"></path>
<path d="M6 16h-2c-1.104 0-2 0.896-2 2v2c0 1.104 0.896 2 2 2h2c1.104 0 2-0.896 2-2v-2c0-1.104-0.896-2-2-2zM6 20h-2v-2h2v2z"></path>
<path d="M6 9h-2c-1.104 0-2 0.896-2 2v2c0 1.104 0.896 2 2 2h2c1.104 0 2-0.896 2-2v-2c0-1.104-0.896-2-2-2zM6 13h-2v-2h2v2z"></path>
<path d="M6 2h-2c-1.104 0-2 0.896-2 2v2c0 1.104 0.896 2 2 2h2c1.104 0 2-0.896 2-2v-2c0-1.104-0.896-2-2-2zM6 6h-2v-2h2v2z"></path>
</symbol>
<symbol id="icon-home-outline" viewBox="0 0 24 24">
<path d="M22.262 10.468c-3.39-2.854-9.546-8.171-9.607-8.225l-0.655-0.563-0.652 0.563c-0.062 0.053-6.221 5.368-9.66 8.248-0.438 0.394-0.688 0.945-0.688 1.509 0 1.104 0.896 2 2 2h1v6c0 1.104 0.896 2 2 2h12c1.104 0 2-0.896 2-2v-6h1c1.104 0 2-0.896 2-2 0-0.598-0.275-1.161-0.738-1.532zM14 20h-4v-5h4v5zM18 12l0.002 8c-0.002 0-3.002 0-3.002 0v-6h-6v6h-3v-8h-3.001c2.765-2.312 7.315-6.227 9.001-7.68 1.686 1.453 6.234 5.367 9 7.681 0 0-3 0-3-0.001z"></path>
</symbol>
<symbol id="icon-trash" viewBox="0 0 24 24">
<path d="M18 7h-1v-1c0-1.104-0.896-2-2-2h-7c-1.104 0-2 0.896-2 2v1h-1c-0.552 0-1 0.448-1 1s0.448 1 1 1v8c0 2.206 1.794 4 4 4h5c2.206 0 4-1.794 4-4v-8c0.552 0 1-0.448 1-1s-0.448-1-1-1zM8 6h7v1h-7v-1zM16 17c0 1.104-0.896 2-2 2h-5c-1.104 0-2-0.896-2-2v-8h9v8z"></path>
<path d="M8.5 10.5c-0.275 0-0.5 0.225-0.5 0.5v6c0 0.275 0.225 0.5 0.5 0.5s0.5-0.225 0.5-0.5v-6c0-0.275-0.225-0.5-0.5-0.5z"></path>
<path d="M10.5 10.5c-0.275 0-0.5 0.225-0.5 0.5v6c0 0.275 0.225 0.5 0.5 0.5s0.5-0.225 0.5-0.5v-6c0-0.275-0.225-0.5-0.5-0.5z"></path>
<path d="M12.5 10.5c-0.275 0-0.5 0.225-0.5 0.5v6c0 0.275 0.225 0.5 0.5 0.5s0.5-0.225 0.5-0.5v-6c0-0.275-0.225-0.5-0.5-0.5z"></path>
<path d="M14.5 10.5c-0.275 0-0.5 0.225-0.5 0.5v6c0 0.275 0.225 0.5 0.5 0.5s0.5-0.225 0.5-0.5v-6c0-0.275-0.225-0.5-0.5-0.5z"></path>
</symbol>
<symbol id="icon-export-outline" viewBox="0 0 24 24">
<path d="M22.711 9.796c-0.041-0.041-4.055-4.096-5.982-6.146-0.42-0.414-0.999-0.65-1.586-0.65-1.182 0-2.143 0.896-2.143 2h-8c-0.553 0-1 0.448-1 1v14c0 0.552 0.447 1 1 1h14c0.553 0 1-0.448 1-1v-6.045c1.434-1.461 2.688-2.729 2.711-2.751 0.387-0.39 0.387-1.018 0-1.408zM15.279 15.941c-0.022 0.027-0.065 0.059-0.136 0.059-0.074 0-0.121-0.023-0.144-0.040v-3.96h-1c-1.771 0.034-3.336 0.68-4.753 1.958 0.43-2.215 1.6-4.958 4.753-4.958h1v-3.958c0.028-0.021 0.071-0.042 0.144-0.042 0.090 0 0.152 0.050 0.154 0.050 1.436 1.525 4.051 4.187 5.297 5.45-0.253 0.257-4.342 4.422-5.315 5.441zM6 19v-12h8c0 0.348 0 0.695 0 1-4.66 0-6 4.871-6 8.5v0.5c1.691-2.578 3.6-3.953 6-4 0 1.045 0 2.838 0 3 0 0.551 0.512 1 1.143 1 0.364 0 0.676-0.158 0.883-0.391 0.539-0.565 1.242-1.291 1.976-2.043v4.434h-12.002z"></path>
</symbol>
<symbol id="icon-cross" viewBox="0 0 24 24">
<path d="M16.5 8.999c-0.115 0-0.23 0.005-0.352 0.015-0.824-2.375-3.312-4.015-5.898-4.015-3.309 0-6.25 2.69-6.25 6 0 0.042 0 0.084 0 0.126-1 0.445-2.75 2.014-2.75 3.875 0 2.206 2.044 4 4.25 4h11c2.757 0 5-2.244 5-5s-2.243-5.001-5-5.001zM16.5 17h-4.5v-3.794l2.146 2.146c0.098 0.099 0.226 0.146 0.354 0.146s0.256-0.049 0.354-0.146c0.195-0.194 0.195-0.512 0-0.707l-2.998-3c-0.047-0.045-0.104-0.082-0.164-0.107-0.123-0.051-0.26-0.051-0.383 0-0.061 0.025-0.115 0.062-0.162 0.107l-3 3c-0.194 0.195-0.194 0.513 0 0.707 0.099 0.099 0.227 0.146 0.354 0.146s0.256-0.049 0.354-0.146l2.145-2.146v3.794h-5.5c-1.104 0-2-0.896-2-2s0.896-2 1.908-2.005l1.422 0.015-0.248-1.201c-0.055-0.264-0.082-0.536-0.082-0.809 0-2.206 1.794-4 4-4 1.951 0 3.604 1.402 3.93 3.334l0.187 1.102 1.073-0.306c0.312-0.089 0.569-0.13 0.812-0.13 1.653 0 3 1.346 3 3s-1.348 3-3.002 3z"></path>
</symbol>
<symbol id="icon-mail" viewBox="0 0 24 24">
<path d="M19 7h-14c-1.104 0-2 0.896-2 2v9c0 1.104 0.896 2 2 2h14c1.104 0 2-0.896 2-2v-9c0-1.104-0.896-2-2-2zM9.316 14.316l1.602 1.4c0.305 0.266 0.691 0.398 1.082 0.398s0.777-0.133 1.082-0.398l1.602-1.4-0.037 0.037 3.646 3.646h-12.586l3.646-3.646-0.037-0.037zM5 17.293v-6.753l3.602 3.151-3.602 3.602zM15.398 13.691l3.602-3.151v6.75l-3.602-3.599zM19 9v0.21l-6.576 5.754c-0.227 0.198-0.621 0.198-0.848 0l-6.576-5.754v-0.21h14z"></path>
</symbol>
<symbol id="icon-cancel-outline" viewBox="0 0 24 24">
<path d="M12 20.5c-4.688 0-8.5-3.812-8.5-8.5s3.812-8.5 8.497-8.5c4.69 0 8.503 3.812 8.503 8.5s-3.812 8.5-8.5 8.5zM12 5.5c-3.586 0-6.5 2.916-6.5 6.5s2.916 6.5 6.5 6.5 6.5-2.916 6.5-6.5-2.916-6.5-6.5-6.5z"></path>
<path d="M12.003 8.5c1.929 0 3.497 1.57 3.497 3.5 0 0.206-0.020 0.412-0.057 0.615l-4.057-4.059c0.203-0.036 0.408-0.056 0.614-0.056M12.003 7.5c-0.882 0-1.696 0.262-2.39 0.697l6.188 6.188c0.438-0.692 0.699-1.508 0.699-2.387 0-2.48-2.014-4.498-4.497-4.498z"></path>
<path d="M8.557 11.384l4.059 4.060c-0.204 0.036-0.409 0.056-0.616 0.056-1.93 0-3.5-1.57-3.5-3.502 0-0.206 0.020-0.412 0.057-0.614M8.199 9.611c-0.435 0.694-0.699 1.508-0.699 2.387 0 2.486 2.016 4.502 4.5 4.502 0.879 0 1.693-0.264 2.387-0.699l-6.188-6.19z"></path>
</symbol>
<symbol id="icon-warning-outline" viewBox="0 0 24 24">
<path d="M12 5.511c0.561 0 1.119 0.354 1.544 1.062l5.912 9.854c0.851 1.415 0.194 2.573-1.456 2.573h-12c-1.65 0-2.307-1.159-1.456-2.573l5.912-9.854c0.425-0.708 0.983-1.062 1.544-1.062M12 3.511c-1.296 0-2.482 0.74-3.259 2.031l-5.912 9.856c-0.786 1.309-0.872 2.705-0.235 3.83s1.879 1.772 3.406 1.772h12c1.527 0 2.77-0.646 3.406-1.771s0.551-2.521-0.235-3.83l-5.912-9.854c-0.777-1.294-1.963-2.034-3.259-2.034z"></path>
<path d="M13.3 16c0 0.718-0.582 1.3-1.3 1.3s-1.3-0.582-1.3-1.3c0-0.718 0.582-1.3 1.3-1.3s1.3 0.582 1.3 1.3z"></path>
<path d="M13.5 10c0-0.83-0.671-1.5-1.5-1.5s-1.5 0.67-1.5 1.5c0 0.199 0.041 0.389 0.111 0.562 0.554 1.376 1.389 3.438 1.389 3.438s0.835-2.062 1.391-3.438c0.068-0.173 0.109-0.363 0.109-0.562z"></path>
</symbol>
<symbol id="icon-lock-open-outline" viewBox="0 0 24 24">
<path d="M13.3 17c0 0.718-0.582 1.3-1.3 1.3s-1.3-0.582-1.3-1.3c0-0.718 0.582-1.3 1.3-1.3s1.3 0.582 1.3 1.3z"></path>
<path d="M18 4c-2.206 0-4 1.794-4 4v3h-4v-1h-3c-1.104 0-2 0.896-2 2v7c0 1.104 0.896 2 2 2h10c1.104 0 2-0.896 2-2v-7c0-1.104-0.896-2-2-2h-1v-2c0-1.104 0.896-2 2-2s2 0.896 2 2v3c0 0.552 0.448 1 1 1s1-0.448 1-1v-3c0-2.206-1.794-4-4-4zM17 19h-10v-7h10.003l-0.003 7z"></path>
</symbol>
<symbol id="icon-user-outline" viewBox="0 0 24 24">
<path d="M12 6c1.654 0 3 1.346 3 3s-1.346 3-3 3-3-1.346-3-3 1.346-3 3-3M12 4c-2.764 0-5 2.238-5 5s2.236 5 5 5 5-2.238 5-5-2.236-5-5-5z"></path>
<path d="M12 17c2.021 0 3.301 0.771 3.783 1.445-0.683 0.26-1.969 0.555-3.783 0.555-1.984 0-3.206-0.305-3.818-0.542 0.459-0.715 1.777-1.458 3.818-1.458M12 15c-3.75 0-6 2-6 4 0 1 2.25 2 6 2 3.518 0 6-1 6-2s-2.354-4-6-4z"></path>
</symbol>
<symbol id="icon-lock-closed-outline" viewBox="0 0 24 24">
<path d="M13.3 17c0 0.718-0.582 1.3-1.3 1.3s-1.3-0.582-1.3-1.3c0-0.718 0.582-1.3 1.3-1.3s1.3 0.582 1.3 1.3z"></path>
<path d="M17 10h-1v-2c0-2.206-1.794-4-4-4s-4 1.794-4 4v2h-1c-1.104 0-2 0.896-2 2v7c0 1.104 0.896 2 2 2h10c1.104 0 2-0.896 2-2v-7c0-1.104-0.896-2-2-2zM10 8c0-1.104 0.896-2 2-2s2 0.896 2 2v3h-4v-3zM17 19h-10v-7h10.003l-0.003 7z"></path>
</symbol>
<symbol id="icon-group-outline" viewBox="0 0 24 24">
<path d="M12 14c2.764 0 5-2.238 5-5s-2.236-5-5-5-5 2.238-5 5 2.236 5 5 5zM12 6c1.654 0 3 1.346 3 3s-1.346 3-3 3-3-1.346-3-3 1.346-3 3-3z"></path>
<path d="M20 15c1.381 0 2.5-1.117 2.5-2.5 0-1.381-1.119-2.5-2.5-2.5s-2.5 1.119-2.5 2.5c0 1.383 1.118 2.5 2.5 2.5zM20 11c0.827 0 1.5 0.673 1.5 1.5s-0.673 1.5-1.5 1.5-1.5-0.673-1.5-1.5 0.673-1.5 1.5-1.5z"></path>
<path d="M20 15.59c-1.331 0-2.332 0.406-2.917 0.969-1.115-0.918-2.878-1.559-5.083-1.559-2.266 0-3.995 0.648-5.092 1.564-0.596-0.565-1.608-0.975-2.908-0.975-2.188 0-3.5 1.091-3.5 2.183 0 0.545 1.312 1.092 3.5 1.092 0.604 0 1.146-0.051 1.623-0.133-0.010 0.090-0.040 0.18-0.040 0.27 0 1 2.405 2 6.417 2 3.762 0 6.417-1 6.417-2 0-0.085-0.011-0.17-0.021-0.255 0.463 0.073 0.996 0.118 1.604 0.118 2.051 0 3.5-0.547 3.5-1.092 0-1.092-1.373-2.182-3.5-2.182zM4 17.863c-1.309 0-2.068-0.207-2.417-0.354 0.239-0.405 1.003-0.92 2.417-0.92 1.107 0 1.837 0.351 2.208 0.706-0.084 0.114-0.169 0.227-0.235 0.344-0.452 0.119-1.108 0.224-1.973 0.224zM12 19c-2.163 0-3.501-0.312-4.184-0.561 0.521-0.678 1.918-1.439 4.184-1.439 2.169 0 3.59 0.761 4.148 1.425-0.755 0.27-2.162 0.575-4.148 0.575zM20 17.863c-0.914 0-1.546-0.103-1.973-0.213-0.072-0.127-0.155-0.252-0.248-0.375 0.356-0.345 1.071-0.685 2.221-0.685 1.324 0 2.141 0.501 2.404 0.911-0.39 0.163-1.205 0.362-2.404 0.362z"></path>
<path d="M4 15c1.381 0 2.5-1.119 2.5-2.5 0-1.379-1.119-2.5-2.5-2.5s-2.5 1.121-2.5 2.5c0 1.381 1.118 2.5 2.5 2.5zM4 11c0.827 0 1.5 0.673 1.5 1.5s-0.673 1.5-1.5 1.5-1.5-0.673-1.5-1.5 0.673-1.5 1.5-1.5z"></path>
</symbol>
<symbol id="icon-chart-line-outline" viewBox="0 0 24 24">
<path d="M5.999 17c-0.677 0-1.342-0.234-1.873-0.658-0.626-0.501-1.019-1.215-1.107-2.011s0.138-1.58 0.639-2.206l4-5c0.978-1.225 2.883-1.471 4.143-0.523l1.674 1.254 2.184-2.729c0.571-0.716 1.425-1.127 2.342-1.127 0.679 0 1.343 0.232 1.873 0.657 0.626 0.501 1.021 1.216 1.108 2.013s-0.14 1.58-0.641 2.204l-4 5c-0.977 1.226-2.882 1.471-4.143 0.526l-1.674-1.256-2.184 2.729c-0.57 0.716-1.424 1.127-2.341 1.127zM10 8c-0.306 0-0.591 0.137-0.781 0.374l-4 5.001c-0.167 0.208-0.243 0.471-0.213 0.734 0.030 0.266 0.161 0.504 0.369 0.67 0.228 0.183 0.465 0.221 0.624 0.221 0.306 0 0.591-0.137 0.782-0.376l3.395-4.244 3.224 2.42c0.42 0.316 1.056 0.231 1.381-0.176l4-5.001c0.167-0.208 0.242-0.469 0.213-0.734-0.030-0.266-0.161-0.504-0.369-0.67-0.227-0.182-0.464-0.22-0.624-0.22-0.306 0-0.591 0.137-0.782 0.376l-3.395 4.242-3.224-2.417c-0.175-0.132-0.382-0.2-0.6-0.2z"></path>
<path d="M19 21h-14c-0.552 0-1-0.447-1-1s0.448-1 1-1h14c0.552 0 1 0.447 1 1s-0.448 1-1 1z"></path>
</symbol>
<symbol id="icon-key-outline" viewBox="0 0 24 24">
<path d="M10 21h-6v-4.414l3.783-3.783c-0.187-0.587-0.283-1.192-0.283-1.803 0-3.309 2.691-6 6-6s6 2.691 6 6-2.691 6-6 6h-1.5v2h-2v2zM6 19h2v-2h2v-2h3.5c2.206 0 4-1.794 4-4s-1.794-4-4-4-4 1.794-4 4c0 0.559 0.121 1.109 0.359 1.639l0.285 0.631-4.144 4.144v1.586z"></path>
<path d="M13.5 9.998c0.551 0 1 0.449 1 1.002 0 0.552-0.449 1-1 1s-1-0.448-1-1c0-0.553 0.449-1.002 1-1.002M13.5 8.998c-1.104 0-2 0.896-2 2.002 0 1.104 0.896 2 2 2 1.105 0 2-0.896 2-2 0-1.105-0.895-2.002-2-2.002z"></path>
</symbol>
<symbol id="icon-cog-outline" viewBox="0 0 24 24">
<path d="M13 5l0.855 3.42 3.389-0.971 1.501 2.6-2.535 2.449 2.535 2.451-1.5 2.6-3.39-0.971-0.855 3.422h-3l-0.855-3.422-3.39 0.971-1.501-2.6 2.535-2.451-2.534-2.449 1.5-2.6 3.39 0.971 0.855-3.42h3M13 3h-3c-0.918 0-1.718 0.625-1.939 1.516l-0.354 1.412-1.4-0.4c-0.184-0.053-0.369-0.078-0.552-0.078-0.7 0-1.368 0.37-1.731 1l-1.5 2.6c-0.459 0.796-0.317 1.802 0.342 2.438l1.047 1.011-1.048 1.015c-0.66 0.637-0.802 1.643-0.343 2.438l1.502 2.6c0.363 0.631 1.031 1 1.731 1 0.183 0 0.368-0.025 0.552-0.076l1.399-0.401 0.354 1.415c0.222 0.885 1.022 1.51 1.94 1.51h3c0.918 0 1.718-0.625 1.939-1.516l0.354-1.414 1.399 0.4c0.184 0.053 0.369 0.077 0.552 0.077 0.7 0 1.368-0.37 1.731-1l1.5-2.6c0.459-0.796 0.317-1.8-0.342-2.438l-1.047-1.013 1.047-1.013c0.66-0.637 0.801-1.644 0.342-2.438l-1.5-2.6c-0.365-0.631-1.031-1-1.732-1-0.184 0-0.368 0.025-0.551 0.076l-1.4 0.401-0.354-1.413c-0.22-0.884-1.020-1.509-1.938-1.509z"></path>
<path d="M11.5 10.5c1.104 0 2 0.895 2 2s-0.896 2-2 2-2-0.896-2-2c0-1.105 0.896-2 2-2M11.5 9.5c-1.654 0-3 1.346-3 3s1.346 3 3 3 3-1.346 3-3-1.346-3-3-3z"></path>
</symbol>
<symbol id="icon-refresh-outline" viewBox="0 0 24 24">
<path d="M17.368 4.998c-0.488 0-1.2 0.145-1.956 0.773-1.036-0.489-2.189-0.771-3.412-0.771-4.418 0-8 3.582-8 8s3.582 8 8 8c4.312 0 8-3.316 8-8 0-0.043 0-4.936 0-4.936-0.016-2.111-1.375-3.066-2.632-3.066zM18 13h-5.128c-1.134 0-1.407-0.561-0.604-1.363l1.448-1.402c-0.562-0.371-1.22-0.549-1.909-0.549-0.93 0-1.805 0.375-2.464 1.033-0.657 0.656-1.020 1.537-1.020 2.467 0 0.933 0.362 1.811 1.020 2.469s1.534 1.021 2.464 1.021 1.805-0.36 2.465-1.019c0.177-0.18 0.334-0.372 0.468-0.579 0.222-0.345 0.596-0.533 0.979-0.533 0.216 0 0.433 0.060 0.625 0.185 0.54 0.346 0.697 1.063 0.351 1.604-0.223 0.344-0.484 0.668-0.78 0.965-1.097 1.099-2.556 1.703-4.106 1.703s-3.009-0.604-4.104-1.701c-1.097-1.096-1.701-2.555-1.701-4.106s0.604-3.012 1.702-4.104c1.096-1.098 2.554-1.7 4.104-1.7 1.311 0 2.551 0.436 3.566 1.229l1.154-1.158c0.311-0.312 0.602-0.461 0.841-0.461 0.377 0 0.627 0.372 0.632 1.065v4.934zM10.92 13.050c0.162 0.392 0.63 0.95 1.952 0.95h1.299c0 0-0.21 0.504-0.614 0.907s-1.086 0.745-1.75 0.745-1.289-0.246-1.758-0.715c-0.468-0.47-0.727-1.088-0.727-1.752s0.258-1.139 0.726-1.604c0.472-0.472 1.097-0.581 1.759-0.581 0.023 0-0.246 0.123-0.246 0.123-0.935 0.934-0.803 1.536-0.641 1.927z"></path>
</symbol>
<symbol id="icon-info-large-outline" viewBox="0 0 24 24">
<path d="M14.234 16.014l0.554-1.104c0.808-1.61 0.897-3.228 0.253-4.552-0.122-0.252-0.277-0.479-0.443-0.693 1.411-0.619 2.402-2.026 2.402-3.664 0-2.206-1.794-4-4-4s-4 1.794-4 4c0 0.783 0.234 1.508 0.624 2.126-1.696 0.33-2.806 1.248-2.947 1.375-0.716 0.631-0.885 1.68-0.405 2.504 0.324 0.559 0.886 0.909 1.494 0.98l-0.554 1.104c-0.808 1.61-0.897 3.228-0.254 4.552 0.565 1.164 1.621 1.955 2.972 2.229 0.413 0.084 0.836 0.127 1.254 0.127 2.368 0 3.965-1.347 4.14-1.501 0.716-0.63 0.887-1.678 0.407-2.503-0.325-0.556-0.887-0.909-1.497-0.98zM13 4.001c1.104 0 2 0.896 2 2s-0.896 2-2 2c-1.105 0-2-0.896-2-2s0.895-2 2-2zM11.184 19c-0.271 0-0.559-0.025-0.854-0.087-1.642-0.334-2.328-1.933-1.328-3.927l1-1.995c0.5-0.996 0.47-1.63-0.108-2.035-0.181-0.125-0.431-0.169-0.689-0.169-0.577 0-1.201 0.214-1.201 0.214s1.133-1.001 2.812-1.001c0.271 0 0.56 0.025 0.856 0.087 1.64 0.334 2.328 1.933 1.328 3.927l-1 1.993c-0.5 0.998-0.472 1.632 0.106 2.035 0.181 0.126 0.433 0.169 0.692 0.169 0.577 0 1.2-0.212 1.2-0.212s-1.133 1.001-2.814 1.001z"></path>
</symbol>
<symbol id="icon-pencil" viewBox="0 0 24 24">
<path d="M21 6.879l-3.879-3.879c-0.293-0.293-0.678-0.439-1.061-0.439-0.384 0-0.767 0.146-1.060 0.439l-10.939 10.939c-0.293 0.293-0.558 0.727-0.75 1.188-0.192 0.463-0.311 0.959-0.311 1.373v4.5h4.5c0.414 0 0.908-0.119 1.371-0.311s0.896-0.457 1.189-0.75l10.94-10.939c0.293-0.293 0.439-0.678 0.439-1.061 0-0.384-0.146-0.767-0.439-1.060zM5.768 15.061l8.293-8.293 1.232 1.232-8.293 8.293-1.232-1.232zM7.5 19h-1.5l-1-1v-1.5c0-0.077 0.033-0.305 0.158-0.605 0.010-0.020 2.967 2.938 2.967 2.938-0.322 0.134-0.548 0.167-0.625 0.167zM8.939 18.232l-1.232-1.232 8.293-8.293 1.232 1.232-8.293 8.293zM17.939 9.232l-3.172-3.172 1.293-1.293 3.17 3.172-1.291 1.293z"></path>
</symbol>
<symbol id="icon-pen" viewBox="0 0 24 24">
<path d="M21.329 7.207c0-1.212-0.472-2.352-1.329-3.207s-1.996-1.329-3.207-1.329c-1.199 0-2.327 0.463-3.18 1.304-0.027 0.025-7.967 7.964-7.967 7.964-0.373 0.373-0.717 0.91-0.967 1.514-0.195 0.473-1.979 5.863-2.336 6.939-0.119 0.358-0.025 0.754 0.242 1.021 0.189 0.189 0.445 0.293 0.707 0.293 0.105 0 0.211-0.018 0.314-0.051 1.076-0.355 6.465-2.141 6.938-2.336 0.603-0.248 1.14-0.592 1.515-0.967l2.157-2.156c0.025 0.001 0.050 0.010 0.076 0.010 0.64 0 1.28-0.244 1.769-0.732l4.5-4.5c0.696-0.695 0.887-1.699 0.588-2.572 0.107-0.386 0.18-0.783 0.18-1.195zM9.465 17.586c-0.406 0.143-1.145 0.393-2.038 0.691l-1.704-1.704c0.301-0.894 0.551-1.634 0.691-2.038l3.051 3.051zM5.368 17.633l0.999 0.999c-0.493 0.164-1 0.333-1.498 0.499 0.166-0.498 0.335-1.006 0.499-1.498zM13.066 14.52l-2.42 2.42c-0.061 0.061-0.151 0.119-0.235 0.18l-3.53-3.529c0.061-0.084 0.12-0.176 0.18-0.234l7.131-7.131 2.731 2.731-3.69 3.69c-0.513 0.512-0.549 1.289-0.167 1.873zM19.146 9.561l-4.5 4.5c-0.098 0.099-0.226 0.146-0.354 0.146s-0.256-0.049-0.354-0.146c-0.195-0.194-0.195-0.512 0-0.707l4.5-4.5c0.194-0.194 0.512-0.194 0.707 0 0.196 0.195 0.197 0.511 0.001 0.707zM19.253 7.797c-0.519-0.168-1.108-0.062-1.521 0.35l-0.102 0.102-2.731-2.731 0.078-0.078c0.984-0.98 2.652-0.981 3.608-0.023 0.479 0.479 0.743 1.116 0.743 1.793 0.001 0.199-0.030 0.394-0.075 0.587z"></path>
</symbol>
<symbol id="icon-power-outline" viewBox="0 0 24 24">
<path d="M17.51 6.062c-0.814-0.815-1.98-1.050-3.010-0.729v-0.333c0-1.656-1.344-3-3-3s-3 1.344-3 3v0.332c-1.029-0.319-2.195-0.085-3.010 0.73-1.605 1.606-2.49 3.741-2.49 6.011s0.885 4.405 2.49 6.011c1.604 1.605 3.739 2.489 6.010 2.489s4.405-0.884 6.010-2.489c1.605-1.605 2.49-3.74 2.49-6.011s-0.885-4.405-2.49-6.011zM10.5 5c0-0.552 0.447-1 1-1s1 0.448 1 1v5c0 0.552-0.447 1-1 1s-1-0.448-1-1v-5zM9.5 8.803v1.197c0 1.104 0.896 2 2 2s2-0.896 2-2v-1.182c0.095 0.284 0.248 0.554 0.475 0.78 0.661 0.661 1.025 1.54 1.025 2.475s-0.364 1.814-1.025 2.476c-1.322 1.321-3.627 1.321-4.949 0-0.662-0.662-1.026-1.541-1.026-2.476s0.364-1.814 1.025-2.476c0.231-0.23 0.383-0.504 0.475-0.794zM16.096 16.67c-1.228 1.228-2.859 1.903-4.596 1.903s-3.368-0.676-4.596-1.903c-1.227-1.228-1.904-2.86-1.904-4.597s0.677-3.369 1.904-4.597c0.391-0.391 1.023-0.391 1.414 0s0.391 1.023 0 1.414c-0.85 0.851-1.318 1.981-1.318 3.183s0.468 2.333 1.318 3.183c0.85 0.85 1.979 1.317 3.182 1.317s2.332-0.468 3.182-1.317c0.851-0.85 1.318-1.98 1.318-3.183s-0.468-2.333-1.318-3.183c-0.391-0.391-0.391-1.023 0-1.414s1.023-0.391 1.414 0c1.227 1.229 1.904 2.861 1.904 4.597s-0.677 3.369-1.904 4.597z"></path>
</symbol>
<symbol id="icon-spanner-outline" viewBox="0 0 24 24">
<path d="M9 16c0 0.552-0.448 1-1 1s-1-0.448-1-1c0-0.552 0.448-1 1-1s1 0.448 1 1z"></path>
<path d="M20.733 4.657c-0.392-0.378-1.013-0.377-1.399 0.009 0.387-0.386 0.388-1.008 0.010-1.4-1.078-0.792-2.405-1.266-3.844-1.266-3.59 0-6.5 2.91-6.5 6.5 0 0.129 0.023 0.252 0.031 0.379-0.337 0.239-2.893 2.147-4.258 3.301-1.135 0.99-1.773 2.375-1.773 3.82 0 2.757 2.243 5 5 5 1.465 0 2.854-0.65 3.811-1.784 1.173-1.375 3.080-3.923 3.317-4.229 0.12-0.010 0.243 0.013 0.372 0.013 3.59 0 6.5-2.91 6.5-6.5 0-1.44-0.474-2.766-1.267-3.843zM8 19c-1.656 0-3-1.343-3-3 0-0.92 0.423-1.732 1.064-2.292 2.368-2.002 3.617-2.748 5.115-4.015-0.105-0.382-0.179-0.777-0.179-1.193 0-2.485 2.015-4.5 4.5-4.5 0.47 0 0.914 0.092 1.339 0.226l-2.839 2.774 0.5 2.5 2.5 0.5 2.805-2.741c0.115 0.396 0.195 0.807 0.195 1.241 0 2.485-2.015 4.5-4.5 4.5-0.416 0-0.811-0.074-1.193-0.18-1.267 1.498-2.013 2.748-4.024 5.105-0.551 0.652-1.363 1.075-2.283 1.075zM19.384 6.271l-2.705 2.645-1.329-0.266-0.263-1.314 2.726-2.663c0.651 0.393 1.19 0.939 1.571 1.598z"></path>
</symbol>
<symbol id="icon-lightbulb" viewBox="0 0 24 24">
<path d="M12.5 5.5c-0.276 0-0.5 0.224-0.5 0.5s0.224 0.5 0.5 0.5c1.083 0 1.964 0.881 1.964 1.964 0 0.276 0.224 0.5 0.5 0.5s0.5-0.224 0.5-0.5c0-1.634-1.33-2.964-2.964-2.964z"></path>
<path d="M12.5 1c-4.136 0-7.5 3.364-7.5 7.5 0 1.486 0.44 2.922 1.274 4.165 0.023 0.047 0.049 0.092 0.080 0.135 1.825 2.606 2.146 3.43 2.146 4.2v3c0 0.552 0.448 1 1 1h2c0 0.26 0.11 0.52 0.29 0.71 0.19 0.18 0.45 0.29 0.71 0.29s0.52-0.11 0.71-0.29c0.18-0.19 0.29-0.45 0.29-0.71h2c0.552 0 1-0.448 1-1v-3c0-0.782 0.319-1.61 2.132-4.199 0.895-1.275 1.368-2.762 1.368-4.301 0-4.136-3.364-7.5-7.5-7.5zM14.5 19h-4v-1h4v1zM16.995 11.653c-1.466 2.093-2.143 3.289-2.385 4.347h-1.11v-2c0-0.552-0.448-1-1-1s-1 0.448-1 1v2h-1.113c-0.24-1.030-0.898-2.2-2.306-4.22-0.022-0.044-0.048-0.087-0.077-0.129-0.657-0.934-1.004-2.024-1.004-3.151 0-3.033 2.467-5.5 5.5-5.5s5.5 2.467 5.5 5.5c0 1.126-0.347 2.216-1.005 3.153z"></path>
</symbol>
<symbol id="icon-weather-sunny" viewBox="0 0 24 24">
<path d="M13 4l-1 2.934-1-2.934c-0.188-0.553 0.106-1.152 0.659-1.341 0.552-0.188 1.153 0.107 1.341 0.659 0.078 0.23 0.072 0.469 0 0.682z"></path>
<path d="M4 11l2.934 1-2.934 1c-0.553 0.188-1.152-0.106-1.341-0.659-0.188-0.552 0.107-1.153 0.659-1.341 0.23-0.078 0.469-0.072 0.682 0z"></path>
<path d="M11 20l1-2.934 1 2.934c0.188 0.553-0.106 1.152-0.659 1.341-0.552 0.188-1.152-0.106-1.341-0.659-0.078-0.23-0.072-0.469 0-0.682z"></path>
<path d="M20 12.998l-2.934-1 2.934-1c0.553-0.188 1.152 0.106 1.341 0.659 0.188 0.552-0.106 1.152-0.659 1.341-0.23 0.078-0.469 0.072-0.682 0z"></path>
<path d="M7.050 5.636l1.367 2.781-2.781-1.367c-0.524-0.257-0.74-0.891-0.483-1.414 0.258-0.523 0.891-0.739 1.414-0.482 0.218 0.107 0.383 0.28 0.483 0.482z"></path>
<path d="M5.636 16.949l2.781-1.367-1.367 2.781c-0.257 0.523-0.891 0.739-1.414 0.482s-0.739-0.891-0.482-1.414c0.107-0.218 0.28-0.382 0.482-0.482z"></path>
<path d="M16.949 18.363l-1.367-2.781 2.781 1.367c0.523 0.257 0.739 0.891 0.482 1.414s-0.891 0.739-1.414 0.482c-0.218-0.107-0.382-0.28-0.482-0.482z"></path>
<path d="M18.362 7.048l-2.782 1.368 1.368-2.782c0.257-0.523 0.891-0.739 1.414-0.482s0.739 0.891 0.481 1.415c-0.106 0.217-0.279 0.381-0.481 0.481z"></path>
<path d="M12 16.5c-2.481 0-4.5-2.019-4.5-4.5s2.019-4.5 4.5-4.5 4.5 2.019 4.5 4.5-2.019 4.5-4.5 4.5zM12 9.5c-1.379 0-2.5 1.121-2.5 2.5s1.121 2.5 2.5 2.5 2.5-1.121 2.5-2.5-1.121-2.5-2.5-2.5z"></path>
</symbol>
<symbol id="icon-weather-night" viewBox="0 0 24 24">
<path d="M10.5 20c-0.861 0-1.71-0.151-2.523-0.451l-1.317-0.485 0.89-1.087c1.275-1.56 1.95-3.454 1.95-5.477s-0.675-3.917-1.951-5.477l-0.89-1.087 1.317-0.485c0.814-0.3 1.663-0.451 2.524-0.451 4.136 0 7.5 3.364 7.5 7.5s-3.364 7.5-7.5 7.5zM9.991 17.976c0.169 0.016 0.339 0.024 0.509 0.024 3.032 0 5.5-2.468 5.5-5.5s-2.468-5.5-5.5-5.5c-0.17 0-0.34 0.008-0.509 0.024 0.991 1.645 1.509 3.511 1.509 5.476s-0.518 3.831-1.509 5.476z"></path>
</symbol>
</defs>
</svg>
